<svg xmlns="http://www.w3.org/2000/svg" viewBox="0 0 260 480" role="img" aria-label="MarksmanMate dashboard and main navigation">
  <rect width="260" height="480" rx="28" fill="#1a2332"/>
  <rect x="12" y="12" width="236" height="456" rx="20" fill="#f4f6f9"/>
  <rect x="90" y="24" width="80" height="8" rx="4" fill="#d8dee8"/>
  <text x="24" y="58" fill="#1a2332" font-family="Segoe UI,sans-serif" font-size="13" font-weight="600">Dashboard</text>
  <rect x="16" y="68" width="108" height="72" rx="10" fill="#fff" stroke="#d8dee8"/>
  <text x="24" y="88" fill="#5c6778" font-family="Segoe UI,sans-serif" font-size="8">Recent sessions</text>
  <text x="24" y="108" fill="#1a2332" font-family="Segoe UI,sans-serif" font-size="11" font-weight="600">Shoot log</text>
  <rect x="132" y="68" width="108" height="72" rx="10" fill="#fff" stroke="#d8dee8"/>
  <text x="140" y="88" fill="#5c6778" font-family="Segoe UI,sans-serif" font-size="8">Firearms &amp; ammo</text>
  <text x="140" y="108" fill="#1a2332" font-family="Segoe UI,sans-serif" font-size="11" font-weight="600">Locker</text>
  <rect x="16" y="152" width="224" height="56" rx="10" fill="#3d5a80"/>
  <text x="130" y="178" text-anchor="middle" fill="#fff" font-family="Segoe UI,sans-serif" font-size="11" font-weight="600">+ Log a new session</text>
  <text x="24" y="230" fill="#1a2332" font-family="Segoe UI,sans-serif" font-size="11" font-weight="600">Tools</text>
  <rect x="16" y="240" width="68" height="48" rx="8" fill="#fff" stroke="#d8dee8"/>
  <text x="50" y="270" text-anchor="middle" fill="#5c6778" font-family="Segoe UI,sans-serif" font-size="8">Timer</text>
  <rect x="92" y="240" width="68" height="48" rx="8" fill="#fff" stroke="#d8dee8"/>
  <text x="126" y="270" text-anchor="middle" fill="#5c6778" font-family="Segoe UI,sans-serif" font-size="8">Targets</text>
  <rect x="168" y="240" width="68" height="48" rx="8" fill="#fff" stroke="#d8dee8"/>
  <text x="202" y="270" text-anchor="middle" fill="#5c6778" font-family="Segoe UI,sans-serif" font-size="8">More</text>
  <rect x="12" y="410" width="236" height="56" rx="0" fill="#fff" stroke="#d8dee8"/>
  <text x="38" y="445" text-anchor="middle" fill="#3d5a80" font-family="Segoe UI,sans-serif" font-size="9" font-weight="600">Home</text>
  <text x="90" y="445" text-anchor="middle" fill="#5c6778" font-family="Segoe UI,sans-serif" font-size="9">Log</text>
  <text x="142" y="445" text-anchor="middle" fill="#5c6778" font-family="Segoe UI,sans-serif" font-size="9">Tools</text>
  <text x="194" y="445" text-anchor="middle" fill="#5c6778" font-family="Segoe UI,sans-serif" font-size="9">Settings</text>
  <rect x="12" y="410" width="236" height="56" fill="none" stroke="#c9922a" stroke-width="2" rx="0"/>
</svg>
